<svg xmlns="http://www.w3.org/2000/svg" viewBox="0 0 200 200" width="200" height="200">
  <rect width="200" height="200" fill="white"/>
  <g fill="#000">
    <rect x="20" y="20" width="60" height="60"/>
    <rect x="120" y="20" width="60" height="60"/>
    <rect x="20" y="120" width="60" height="60"/>
    <rect x="40" y="40" width="20" height="20" fill="white"/>
    <rect x="140" y="40" width="20" height="20" fill="white"/>
    <rect x="40" y="140" width="20" height="20" fill="white"/>
    <rect x="90" y="30" width="10" height="10"/>
    <rect x="100" y="40" width="10" height="10"/>
    <rect x="90" y="50" width="10" height="10"/>
    <rect x="30" y="90" width="10" height="10"/>
    <rect x="50" y="100" width="10" height="10"/>
    <rect x="120" y="90" width="20" height="20"/>
    <rect x="150" y="120" width="30" height="30"/>
    <rect x="90" y="150" width="20" height="30"/>
  </g>
  <text x="100" y="195" text-anchor="middle" font-size="10" fill="#666">Código QR</text>
</svg>
